<svg xmlns="http://www.w3.org/2000/svg" version="1.1" xmlns:xlink="http://www.w3.org/1999/xlink" xmlns:svgjs="http://svgjs.com/svgjs" width="1440" height="560" preserveAspectRatio="none" viewBox="0 0 1440 560"><g mask="url(&quot;#SvgjsMask1007&quot;)" fill="none"><rect width="1440" height="560" x="0" y="0" fill="rgba(104, 43, 215, 1)"></rect><path d="M0,481.961C91.352,476.875,174.813,440.801,255.159,397.035C341,350.276,422.853,298.158,481.286,219.796C549.877,127.81,634.87,24.638,617.412,-88.77C599.955,-202.171,466.91,-252.85,394.79,-342.088C319.215,-435.601,296.84,-584.91,183.657,-625.48C70.681,-665.975,-45.607,-580.65,-158.7,-540.483C-265.233,-502.646,-387.84,-485.549,-458.594,-397.374C-528.669,-310.045,-538.578,-188.083,-531.122,-76.364C-524.546,22.169,-464.239,103.553,-419.295,191.485C-376.519,275.175,-351.355,372.978,-274.096,426.501C-195.886,480.682,-94.997,487.25,0,481.961" fill="#5321ae"></path><path d="M1440 1073.9C1563.433 1082.022 1699.704 1192.659 1800.522 1120.984 1902.754 1048.304 1850.932 882.988 1880.127 760.999 1902.618 667.021 1947.511 582.835 1952.409 486.327 1958.221 371.80600000000004 1974.892 247.086 1911.0430000000001 151.839 1845.296 53.75999999999999 1723.371 13.849000000000046 1611.122-22.78800000000001 1496.074-60.339000000000055 1375.35-89.07799999999997 1257.521-61.466999999999985 1136.191-33.03499999999997 1007.4390000000001 23.841000000000008 947.023 132.83300000000003 888.133 239.072 946.892 368.462 951.931 489.826 955.9390000000001 586.366 948.611 679.6610000000001 973.601 772.9970000000001 1002.751 881.8720000000001 1014.021 1014.3620000000001 1108.731 1075.4650000000001 1203.438 1136.566 1327.536 1066.5 1440 1073.9" fill="#8756df"></path></g><defs><mask id="SvgjsMask1007"><rect width="1440" height="560" fill="#ffffff"></rect></mask></defs></svg>